<?xml version="1.0" encoding="UTF-8"?><svg id="Ebene_2" xmlns="http://www.w3.org/2000/svg" viewBox="0 0 363.18 54.14"><defs><style>.cls-1{fill-rule:evenodd;}.cls-1,.cls-2{fill:#00c6b2;stroke-width:0px;}</style></defs><g id="Ebene_1-2"><path class="cls-2" d="m73.1,1.01h39.68v12.67h-24.63v8.42h20.38v11.67h-20.38v18.72h-15.05V1.01Z"/><path class="cls-2" d="m113.92,26.93C113.92,11.52,124,.07,139.99.07s26.21,11.45,26.21,26.86-10.22,26.79-26.21,26.79-26.07-11.38-26.07-26.79Zm37.01,0c0-8.42-3.67-14.83-10.87-14.83s-10.87,6.41-10.87,14.83,3.67,14.76,10.87,14.76,10.87-6.34,10.87-14.76Z"/><path class="cls-2" d="m170.37,1.01h19.59l7.92,28.8h.14l7.92-28.8h19.73v51.48h-13.61V20.23h-.14l-8.57,32.26h-11.02l-8.57-32.26h-.14v32.26h-13.25V1.01Z"/><path class="cls-2" d="m231.35,26.79c0-15.19,8.71-26.79,24.34-26.79,10.58,0,18.43,5.47,20.31,15.91h-4.97c-1.58-7.7-7.49-11.74-15.34-11.74-13.25,0-19.3,10.15-19.3,22.61s6.41,22.47,18.65,22.47,16.99-8.21,16.99-17.14v-1.8h-16.56v-4.25h21.31v26.43h-3.38l-1.01-8.21h-.22c-2.66,4.18-7.7,9.22-17.21,9.22-15.05,0-23.62-11.31-23.62-26.71Z"/><path class="cls-2" d="m285.35,1.01h20.23c5.62,0,9.36,1.58,12.1,4.46,2.3,2.45,3.6,5.69,3.6,9.94,0,9.5-5.54,14.69-16.35,14.69h-14.76v22.39h-4.82V1.01Zm19.23,24.99c8.35,0,11.81-3.96,11.81-10.44s-3.96-10.3-11.38-10.3h-14.83v20.74h14.4Z"/><path class="cls-2" d="m341.01,5.33h-17.43V1.01h39.6v4.32h-17.35v47.16h-4.82V5.33Z"/><path class="cls-1" d="m27.03,54.14c0-14.91-12.12-27.03-27.03-27.03h0c14.91,0,27.03-12.12,27.03-27.03h0c0,14.91,12.12,27.03,27.03,27.03h0c-14.91,0-27.03,12.12-27.03,27.03"/></g></svg>